<svg xmlns="http://www.w3.org/2000/svg" viewBox="0 0 280 130" width="280" height="130">
<defs>
  <linearGradient id="bcircuitcoil" x1="0" y1="0" x2="1" y2="1">
    <stop offset="0%" stop-color="#020a1c"/>
    <stop offset="100%" stop-color="#010510"/>
  </linearGradient>
  <radialGradient id="gcircuitcoil" cx="50%" cy="45%" r="55%">
    <stop offset="0%" stop-color="#00e5ff" stop-opacity="0.18"/>
    <stop offset="100%" stop-color="#00e5ff" stop-opacity="0"/>
  </radialGradient>
  <linearGradient id="tcircuitcoil" x1="0" y1="0" x2="0" y2="1">
    <stop offset="40%" stop-color="rgba(0,0,0,0)"/>
    <stop offset="100%" stop-color="rgba(0,0,0,0.88)"/>
  </linearGradient>
  <linearGradient id="lcircuitcoil" x1="0" y1="0" x2="1" y2="0">
    <stop offset="0%" stop-color="#00e5ff"/>
    <stop offset="65%" stop-color="#00aacc" stop-opacity="0.5"/>
    <stop offset="100%" stop-color="#00e5ff" stop-opacity="0"/>
  </linearGradient>
  <clipPath id="clipcircuitcoil"><rect width="280" height="130"/></clipPath>
</defs>

<rect width="280" height="130" fill="url(#bcircuitcoil)"/>
<rect width="280" height="130" fill="url(#gcircuitcoil)"/>

<g clip-path="url(#clipcircuitcoil)"><path d="M93,26L130,26L130,77L79,77L79,35L111,35" fill="none" stroke="#00e5ff" stroke-width="2" opacity="0.4"/>
  <circle cx="93" cy="26" r="5" fill="#00e5ff" opacity="0.65">
      <animate attributeName="opacity" values="0.65;1;0.65" dur="0.80s" repeatCount="indefinite"/>
    </circle><circle cx="130" cy="26" r="3" fill="#00aacc" opacity="0.5"/><circle cx="130" cy="77" r="3" fill="#00aacc" opacity="0.5"/><circle cx="79" cy="77" r="3" fill="#00aacc" opacity="0.5"/><circle cx="79" cy="35" r="3" fill="#00aacc" opacity="0.5"/><circle cx="111" cy="35" r="5" fill="#00e5ff" opacity="0.65">
      <animate attributeName="opacity" values="0.65;1;0.65" dur="1.80s" repeatCount="indefinite"/>
    </circle>
  <circle r="5" fill="#00e5ff" opacity="0.9">
    <animateMotion dur="2.95s" repeatCount="indefinite" path="M93,26L130,26L130,77L79,77L79,35L111,35"/>
  </circle></g>

<rect width="280" height="130" fill="url(#tcircuitcoil)"/>

<text x="140" y="106"
  font-family="Inter,system-ui,sans-serif" font-size="20" font-weight="800"
  fill="white" text-anchor="middle"
  paint-order="stroke" stroke="rgba(0,0,0,0.7)" stroke-width="4" stroke-linejoin="round"
>Circuit Coil</text>


<rect x="110.6" y="116" width="58.8" height="13" fill="#006688" opacity="0.92" rx="3"/>
<text x="140" y="125.5"
  font-family="Inter,system-ui,sans-serif" font-size="7.5" font-weight="700"
  letter-spacing="1.2" fill="white" text-anchor="middle"
>PUZZLE</text>

<rect y="127.5" width="280" height="2.5" fill="url(#lcircuitcoil)"/>
</svg>