<svg xmlns="http://www.w3.org/2000/svg" viewBox="0 0 280 130" width="280" height="130">
<defs>
  <linearGradient id="bhexatwist" x1="0" y1="0" x2="1" y2="1">
    <stop offset="0%" stop-color="#08060f"/>
    <stop offset="100%" stop-color="#040408"/>
  </linearGradient>
  <radialGradient id="ghexatwist" cx="50%" cy="45%" r="55%">
    <stop offset="0%" stop-color="#9d4edd" stop-opacity="0.18"/>
    <stop offset="100%" stop-color="#9d4edd" stop-opacity="0"/>
  </radialGradient>
  <linearGradient id="thexatwist" x1="0" y1="0" x2="0" y2="1">
    <stop offset="40%" stop-color="rgba(0,0,0,0)"/>
    <stop offset="100%" stop-color="rgba(0,0,0,0.88)"/>
  </linearGradient>
  <linearGradient id="lhexatwist" x1="0" y1="0" x2="1" y2="0">
    <stop offset="0%" stop-color="#9d4edd"/>
    <stop offset="65%" stop-color="#7b2fbe" stop-opacity="0.5"/>
    <stop offset="100%" stop-color="#9d4edd" stop-opacity="0"/>
  </linearGradient>
  <clipPath id="cliphexatwist"><rect width="280" height="130"/></clipPath>
</defs>

<rect width="280" height="130" fill="url(#bhexatwist)"/>
<rect width="280" height="130" fill="url(#ghexatwist)"/>

<g clip-path="url(#cliphexatwist)"><path d="M76,20L135,20L135,66L70,66L70,15L134,15" fill="none" stroke="#9d4edd" stroke-width="2" opacity="0.4"/>
  <circle cx="76" cy="20" r="5" fill="#9d4edd" opacity="0.65">
      <animate attributeName="opacity" values="0.65;1;0.65" dur="0.80s" repeatCount="indefinite"/>
    </circle><circle cx="135" cy="20" r="3" fill="#7b2fbe" opacity="0.5"/><circle cx="135" cy="66" r="3" fill="#7b2fbe" opacity="0.5"/><circle cx="70" cy="66" r="3" fill="#7b2fbe" opacity="0.5"/><circle cx="70" cy="15" r="3" fill="#7b2fbe" opacity="0.5"/><circle cx="134" cy="15" r="5" fill="#9d4edd" opacity="0.65">
      <animate attributeName="opacity" values="0.65;1;0.65" dur="1.80s" repeatCount="indefinite"/>
    </circle>
  <circle r="5" fill="#9d4edd" opacity="0.9">
    <animateMotion dur="1.61s" repeatCount="indefinite" path="M76,20L135,20L135,66L70,66L70,15L134,15"/>
  </circle></g>

<rect width="280" height="130" fill="url(#thexatwist)"/>

<text x="140" y="106"
  font-family="Inter,system-ui,sans-serif" font-size="20" font-weight="800"
  fill="white" text-anchor="middle"
  paint-order="stroke" stroke="rgba(0,0,0,0.7)" stroke-width="4" stroke-linejoin="round"
>Hexa Twist</text>


<rect x="110.6" y="116" width="58.8" height="13" fill="#5a189a" opacity="0.92" rx="3"/>
<text x="140" y="125.5"
  font-family="Inter,system-ui,sans-serif" font-size="7.5" font-weight="700"
  letter-spacing="1.2" fill="white" text-anchor="middle"
>PUZZLE</text>

<rect y="127.5" width="280" height="2.5" fill="url(#lhexatwist)"/>
</svg>