<svg xmlns="http://www.w3.org/2000/svg" viewBox="0 0 280 130" width="280" height="130">
<defs>
  <linearGradient id="bjunglelink" x1="0" y1="0" x2="1" y2="1">
    <stop offset="0%" stop-color="#041608"/>
    <stop offset="100%" stop-color="#020804"/>
  </linearGradient>
  <radialGradient id="gjunglelink" cx="50%" cy="45%" r="55%">
    <stop offset="0%" stop-color="#44cc44" stop-opacity="0.18"/>
    <stop offset="100%" stop-color="#44cc44" stop-opacity="0"/>
  </radialGradient>
  <linearGradient id="tjunglelink" x1="0" y1="0" x2="0" y2="1">
    <stop offset="40%" stop-color="rgba(0,0,0,0)"/>
    <stop offset="100%" stop-color="rgba(0,0,0,0.88)"/>
  </linearGradient>
  <linearGradient id="ljunglelink" x1="0" y1="0" x2="1" y2="0">
    <stop offset="0%" stop-color="#44cc44"/>
    <stop offset="65%" stop-color="#22aa22" stop-opacity="0.5"/>
    <stop offset="100%" stop-color="#44cc44" stop-opacity="0"/>
  </linearGradient>
  <clipPath id="clipjunglelink"><rect width="280" height="130"/></clipPath>
</defs>

<rect width="280" height="130" fill="url(#bjunglelink)"/>
<rect width="280" height="130" fill="url(#gjunglelink)"/>

<g clip-path="url(#clipjunglelink)"><path d="M101,34L166,34L166,103L115,103L115,68L164,68" fill="none" stroke="#44cc44" stroke-width="2" opacity="0.4"/>
  <circle cx="101" cy="34" r="5" fill="#44cc44" opacity="0.65">
      <animate attributeName="opacity" values="0.65;1;0.65" dur="0.80s" repeatCount="indefinite"/>
    </circle><circle cx="166" cy="34" r="3" fill="#22aa22" opacity="0.5"/><circle cx="166" cy="103" r="3" fill="#22aa22" opacity="0.5"/><circle cx="115" cy="103" r="3" fill="#22aa22" opacity="0.5"/><circle cx="115" cy="68" r="3" fill="#22aa22" opacity="0.5"/><circle cx="164" cy="68" r="5" fill="#44cc44" opacity="0.65">
      <animate attributeName="opacity" values="0.65;1;0.65" dur="1.80s" repeatCount="indefinite"/>
    </circle>
  <circle r="5" fill="#44cc44" opacity="0.9">
    <animateMotion dur="2.24s" repeatCount="indefinite" path="M101,34L166,34L166,103L115,103L115,68L164,68"/>
  </circle></g>

<rect width="280" height="130" fill="url(#tjunglelink)"/>

<text x="140" y="106"
  font-family="Inter,system-ui,sans-serif" font-size="20" font-weight="800"
  fill="white" text-anchor="middle"
  paint-order="stroke" stroke="rgba(0,0,0,0.7)" stroke-width="4" stroke-linejoin="round"
>Jungle Link</text>


<rect x="110.6" y="116" width="58.8" height="13" fill="#156615" opacity="0.92" rx="3"/>
<text x="140" y="125.5"
  font-family="Inter,system-ui,sans-serif" font-size="7.5" font-weight="700"
  letter-spacing="1.2" fill="white" text-anchor="middle"
>PUZZLE</text>

<rect y="127.5" width="280" height="2.5" fill="url(#ljunglelink)"/>
</svg>