<svg xmlns="http://www.w3.org/2000/svg" viewBox="0 0 280 130" width="280" height="130">
<defs>
  <linearGradient id="bmagmalink" x1="0" y1="0" x2="1" y2="1">
    <stop offset="0%" stop-color="#2a0600"/>
    <stop offset="100%" stop-color="#0a0200"/>
  </linearGradient>
  <radialGradient id="gmagmalink" cx="50%" cy="45%" r="55%">
    <stop offset="0%" stop-color="#ff5500" stop-opacity="0.18"/>
    <stop offset="100%" stop-color="#ff5500" stop-opacity="0"/>
  </radialGradient>
  <linearGradient id="tmagmalink" x1="0" y1="0" x2="0" y2="1">
    <stop offset="40%" stop-color="rgba(0,0,0,0)"/>
    <stop offset="100%" stop-color="rgba(0,0,0,0.88)"/>
  </linearGradient>
  <linearGradient id="lmagmalink" x1="0" y1="0" x2="1" y2="0">
    <stop offset="0%" stop-color="#ff5500"/>
    <stop offset="65%" stop-color="#ff8c00" stop-opacity="0.5"/>
    <stop offset="100%" stop-color="#ff5500" stop-opacity="0"/>
  </linearGradient>
  <clipPath id="clipmagmalink"><rect width="280" height="130"/></clipPath>
</defs>

<rect width="280" height="130" fill="url(#bmagmalink)"/>
<rect width="280" height="130" fill="url(#gmagmalink)"/>

<g clip-path="url(#clipmagmalink)"><path d="M57,32L121,32L121,93L56,93L56,35L91,35" fill="none" stroke="#ff5500" stroke-width="2" opacity="0.4"/>
  <circle cx="57" cy="32" r="5" fill="#ff5500" opacity="0.65">
      <animate attributeName="opacity" values="0.65;1;0.65" dur="0.80s" repeatCount="indefinite"/>
    </circle><circle cx="121" cy="32" r="3" fill="#ff8c00" opacity="0.5"/><circle cx="121" cy="93" r="3" fill="#ff8c00" opacity="0.5"/><circle cx="56" cy="93" r="3" fill="#ff8c00" opacity="0.5"/><circle cx="56" cy="35" r="3" fill="#ff8c00" opacity="0.5"/><circle cx="91" cy="35" r="5" fill="#ff5500" opacity="0.65">
      <animate attributeName="opacity" values="0.65;1;0.65" dur="1.80s" repeatCount="indefinite"/>
    </circle>
  <circle r="5" fill="#ff5500" opacity="0.9">
    <animateMotion dur="2.29s" repeatCount="indefinite" path="M57,32L121,32L121,93L56,93L56,35L91,35"/>
  </circle></g>

<rect width="280" height="130" fill="url(#tmagmalink)"/>

<text x="140" y="106"
  font-family="Inter,system-ui,sans-serif" font-size="20" font-weight="800"
  fill="white" text-anchor="middle"
  paint-order="stroke" stroke="rgba(0,0,0,0.7)" stroke-width="4" stroke-linejoin="round"
>Magma Link</text>


<rect x="110.6" y="116" width="58.8" height="13" fill="#cc2200" opacity="0.92" rx="3"/>
<text x="140" y="125.5"
  font-family="Inter,system-ui,sans-serif" font-size="7.5" font-weight="700"
  letter-spacing="1.2" fill="white" text-anchor="middle"
>PUZZLE</text>

<rect y="127.5" width="280" height="2.5" fill="url(#lmagmalink)"/>
</svg>