<svg xmlns="http://www.w3.org/2000/svg" viewBox="0 0 280 130" width="280" height="130">
<defs>
  <linearGradient id="bpixelcoil" x1="0" y1="0" x2="1" y2="1">
    <stop offset="0%" stop-color="#050520"/>
    <stop offset="100%" stop-color="#020210"/>
  </linearGradient>
  <radialGradient id="gpixelcoil" cx="50%" cy="45%" r="55%">
    <stop offset="0%" stop-color="#4466ff" stop-opacity="0.18"/>
    <stop offset="100%" stop-color="#4466ff" stop-opacity="0"/>
  </radialGradient>
  <linearGradient id="tpixelcoil" x1="0" y1="0" x2="0" y2="1">
    <stop offset="40%" stop-color="rgba(0,0,0,0)"/>
    <stop offset="100%" stop-color="rgba(0,0,0,0.88)"/>
  </linearGradient>
  <linearGradient id="lpixelcoil" x1="0" y1="0" x2="1" y2="0">
    <stop offset="0%" stop-color="#4466ff"/>
    <stop offset="65%" stop-color="#2244dd" stop-opacity="0.5"/>
    <stop offset="100%" stop-color="#4466ff" stop-opacity="0"/>
  </linearGradient>
  <clipPath id="clippixelcoil"><rect width="280" height="130"/></clipPath>
</defs>

<rect width="280" height="130" fill="url(#bpixelcoil)"/>
<rect width="280" height="130" fill="url(#gpixelcoil)"/>

<g clip-path="url(#clippixelcoil)"><path d="M87,29L129,29L129,91L89,91L89,58L140,58" fill="none" stroke="#4466ff" stroke-width="2" opacity="0.4"/>
  <circle cx="87" cy="29" r="5" fill="#4466ff" opacity="0.65">
      <animate attributeName="opacity" values="0.65;1;0.65" dur="0.80s" repeatCount="indefinite"/>
    </circle><circle cx="129" cy="29" r="3" fill="#2244dd" opacity="0.5"/><circle cx="129" cy="91" r="3" fill="#2244dd" opacity="0.5"/><circle cx="89" cy="91" r="3" fill="#2244dd" opacity="0.5"/><circle cx="89" cy="58" r="3" fill="#2244dd" opacity="0.5"/><circle cx="140" cy="58" r="5" fill="#4466ff" opacity="0.65">
      <animate attributeName="opacity" values="0.65;1;0.65" dur="1.80s" repeatCount="indefinite"/>
    </circle>
  <circle r="5" fill="#4466ff" opacity="0.9">
    <animateMotion dur="2.00s" repeatCount="indefinite" path="M87,29L129,29L129,91L89,91L89,58L140,58"/>
  </circle></g>

<rect width="280" height="130" fill="url(#tpixelcoil)"/>

<text x="140" y="106"
  font-family="Inter,system-ui,sans-serif" font-size="20" font-weight="800"
  fill="white" text-anchor="middle"
  paint-order="stroke" stroke="rgba(0,0,0,0.7)" stroke-width="4" stroke-linejoin="round"
>Pixel Coil</text>


<rect x="110.6" y="116" width="58.8" height="13" fill="#1133aa" opacity="0.92" rx="3"/>
<text x="140" y="125.5"
  font-family="Inter,system-ui,sans-serif" font-size="7.5" font-weight="700"
  letter-spacing="1.2" fill="white" text-anchor="middle"
>ARCADE</text>

<rect y="127.5" width="280" height="2.5" fill="url(#lpixelcoil)"/>
</svg>