<svg xmlns="http://www.w3.org/2000/svg" viewBox="0 0 280 130" width="280" height="130">
<defs>
  <linearGradient id="bvalveflux" x1="0" y1="0" x2="1" y2="1">
    <stop offset="0%" stop-color="#08060f"/>
    <stop offset="100%" stop-color="#040408"/>
  </linearGradient>
  <radialGradient id="gvalveflux" cx="50%" cy="45%" r="55%">
    <stop offset="0%" stop-color="#9d4edd" stop-opacity="0.18"/>
    <stop offset="100%" stop-color="#9d4edd" stop-opacity="0"/>
  </radialGradient>
  <linearGradient id="tvalveflux" x1="0" y1="0" x2="0" y2="1">
    <stop offset="40%" stop-color="rgba(0,0,0,0)"/>
    <stop offset="100%" stop-color="rgba(0,0,0,0.88)"/>
  </linearGradient>
  <linearGradient id="lvalveflux" x1="0" y1="0" x2="1" y2="0">
    <stop offset="0%" stop-color="#9d4edd"/>
    <stop offset="65%" stop-color="#7b2fbe" stop-opacity="0.5"/>
    <stop offset="100%" stop-color="#9d4edd" stop-opacity="0"/>
  </linearGradient>
  <clipPath id="clipvalveflux"><rect width="280" height="130"/></clipPath>
</defs>

<rect width="280" height="130" fill="url(#bvalveflux)"/>
<rect width="280" height="130" fill="url(#gvalveflux)"/>

<g clip-path="url(#clipvalveflux)"><g><animateTransform attributeName="transform" type="rotate" values="0 121.46722639712208 31.945956126308523;360 121.46722639712208 31.945956126308523" dur="3.50s" repeatCount="indefinite"/>
    <circle cx="121.46722639712208" cy="31.945956126308523" r="30.27366567060204" fill="none" stroke="#9d4edd" stroke-width="2.5" opacity="0.45"/>
    <circle cx="121.46722639712208" cy="31.945956126308523" r="13.6" fill="#9d4edd" opacity="0.25"/>
    <circle cx="121.46722639712208" cy="31.945956126308523" r="6.1" fill="#9d4edd" opacity="0.6"/>
    <rect x="148.7" y="27.9" width="6" height="8" fill="#9d4edd" opacity="0.5" rx="1" transform="rotate(0 151.7 31.9)"/><rect x="139.9" y="49.4" width="6" height="8" fill="#9d4edd" opacity="0.5" rx="1" transform="rotate(45 142.9 53.4)"/><rect x="118.5" y="58.2" width="6" height="8" fill="#9d4edd" opacity="0.5" rx="1" transform="rotate(90 121.5 62.2)"/><rect x="97.1" y="49.4" width="6" height="8" fill="#9d4edd" opacity="0.5" rx="1" transform="rotate(135 100.1 53.4)"/><rect x="88.2" y="27.9" width="6" height="8" fill="#9d4edd" opacity="0.5" rx="1" transform="rotate(180 91.2 31.9)"/><rect x="97.1" y="6.5" width="6" height="8" fill="#9d4edd" opacity="0.5" rx="1" transform="rotate(225 100.1 10.5)"/><rect x="118.5" y="-2.3" width="6" height="8" fill="#9d4edd" opacity="0.5" rx="1" transform="rotate(270 121.5 1.7)"/><rect x="139.9" y="6.5" width="6" height="8" fill="#9d4edd" opacity="0.5" rx="1" transform="rotate(315 142.9 10.5)"/></g>
  <g><animateTransform attributeName="transform" type="rotate" values="0 174.06963504479955 31.945956126308523;-360 174.06963504479955 31.945956126308523" dur="5.48s" repeatCount="indefinite"/>
    <circle cx="174.06963504479955" cy="31.945956126308523" r="19.32874297707545" fill="none" stroke="#7b2fbe" stroke-width="2" opacity="0.4"/>
    <circle cx="174.06963504479955" cy="31.945956126308523" r="6.8" fill="#7b2fbe" opacity="0.5"/>
    <rect x="190.9" y="28.4" width="5" height="7" fill="#7b2fbe" opacity="0.45" rx="1" transform="rotate(0 193.4 31.9)"/><rect x="181.2" y="45.2" width="5" height="7" fill="#7b2fbe" opacity="0.45" rx="1" transform="rotate(60 183.7 48.7)"/><rect x="161.9" y="45.2" width="5" height="7" fill="#7b2fbe" opacity="0.45" rx="1" transform="rotate(120 164.4 48.7)"/><rect x="152.2" y="28.4" width="5" height="7" fill="#7b2fbe" opacity="0.45" rx="1" transform="rotate(180 154.7 31.9)"/><rect x="161.9" y="11.7" width="5" height="7" fill="#7b2fbe" opacity="0.45" rx="1" transform="rotate(240 164.4 15.2)"/><rect x="181.2" y="11.7" width="5" height="7" fill="#7b2fbe" opacity="0.45" rx="1" transform="rotate(300 183.7 15.2)"/></g></g>

<rect width="280" height="130" fill="url(#tvalveflux)"/>

<text x="140" y="106"
  font-family="Inter,system-ui,sans-serif" font-size="20" font-weight="800"
  fill="white" text-anchor="middle"
  paint-order="stroke" stroke="rgba(0,0,0,0.7)" stroke-width="4" stroke-linejoin="round"
>Valve Flux</text>


<rect x="110.6" y="116" width="58.8" height="13" fill="#5a189a" opacity="0.92" rx="3"/>
<text x="140" y="125.5"
  font-family="Inter,system-ui,sans-serif" font-size="7.5" font-weight="700"
  letter-spacing="1.2" fill="white" text-anchor="middle"
>PUZZLE</text>

<rect y="127.5" width="280" height="2.5" fill="url(#lvalveflux)"/>
</svg>